<svg width="288" height="288" viewBox="0 0 288 288" fill="none" xmlns="http://www.w3.org/2000/svg">
<g clip-path="url(#clip0_8_2)">
<path d="M255.291 79.1894C258.915 68.8125 259.566 57.6291 257.169 46.9021C254.773 36.1751 249.425 26.3316 241.73 18.4833C234.195 10.4824 224.572 4.7488 213.95 1.93053C203.327 -0.887727 192.127 -0.678246 181.617 2.5353L153.163 10.9156C147.18 12.6822 140.815 12.6822 134.833 10.9156L106.383 2.53557C95.8727 -0.677349 84.6734 -0.886513 74.0507 1.93172C63.4279 4.74994 53.8052 10.4832 46.27 18.4836C38.5749 26.3319 33.2272 36.1752 30.8309 46.9022C28.4345 57.6292 29.0849 68.8125 32.7085 79.1894L52.2025 136.837C54.5119 143.773 54.447 151.281 52.0179 158.177C46.1264 176.073 43.893 194.971 45.4505 213.748C47.0079 232.524 52.3244 250.796 61.084 267.477L67.2539 279.154C68.7022 281.897 70.8894 284.179 73.5679 285.743C76.2464 287.308 79.3092 288.091 82.4097 288.004C85.5103 287.918 88.5247 286.965 91.1119 285.254C93.6991 283.543 95.7557 281.142 97.0489 278.323L127.833 211.157C129.251 208.061 131.529 205.438 134.395 203.598C137.261 201.759 140.595 200.781 144 200.781C147.405 200.781 150.739 201.759 153.605 203.598C156.471 205.438 158.749 208.061 160.168 211.157L190.951 278.323C192.234 281.15 194.288 283.557 196.878 285.27C199.467 286.982 202.486 287.93 205.589 288.004L206.068 288.013C209.092 288.023 212.06 287.202 214.648 285.639C217.236 284.077 219.346 281.834 220.746 279.154L226.525 268.225C235.406 251.316 240.797 232.794 242.379 213.76C243.96 194.726 241.7 175.569 235.731 157.426C233.529 150.736 233.552 143.513 235.797 136.837L255.291 79.1894ZM227.188 160.26C232.778 177.251 234.895 195.192 233.414 213.017C231.933 230.842 226.884 248.188 218.566 264.023L212.792 274.953C212.16 276.237 211.163 277.306 209.927 278.028C208.69 278.749 207.269 279.09 205.84 279.009C204.415 278.986 203.027 278.556 201.838 277.769C200.65 276.983 199.712 275.873 199.134 274.57L168.35 207.404C166.213 202.743 162.782 198.792 158.465 196.023C154.149 193.254 149.128 191.782 144 191.782C138.872 191.782 133.851 193.254 129.535 196.023C125.218 198.792 121.788 202.743 119.65 207.404L88.866 274.57C88.2738 275.863 87.3316 276.963 86.146 277.748C84.9605 278.532 83.579 278.969 82.158 279.009C80.737 279.049 79.3333 278.69 78.1057 277.973C76.8781 277.256 75.8758 276.21 75.2122 274.953L69.0422 263.276C60.8151 247.563 55.8419 230.351 54.4202 212.67C52.9985 194.99 55.1575 177.205 60.768 160.378C63.649 151.804 63.6351 142.52 60.7285 133.954L41.2345 76.3069C38.1557 67.4888 37.603 57.9856 39.6389 48.87C41.6748 39.7545 46.2183 31.3894 52.7564 24.7192C59.1603 17.9204 67.3381 13.0482 76.3658 10.6533C85.3934 8.25836 94.9109 8.43612 103.843 11.1665L132.289 19.5468C134.731 20.2376 137.232 20.7019 139.76 20.9338C134.135 26.8244 130.215 34.1326 128.421 42.0776C128.164 43.2431 128.38 44.4629 129.022 45.4691C129.664 46.4753 130.679 47.1854 131.844 47.4433C132.165 47.5127 132.492 47.548 132.82 47.5488C133.844 47.5477 134.837 47.1974 135.635 46.5559C136.433 45.9143 136.989 45.0198 137.21 44.02C138.439 38.5616 140.915 33.462 144.446 29.1213C147.976 24.7807 152.464 21.317 157.557 19.0019L171.654 14.849L179.591 52.712L154.353 77.4225C153.686 78.074 153.239 78.9167 153.072 79.8339C152.905 80.7511 153.027 81.6975 153.421 82.5421L171.421 121.166C171.671 121.701 172.024 122.182 172.46 122.581C172.896 122.981 173.406 123.29 173.961 123.492C174.517 123.694 175.107 123.785 175.697 123.759C176.287 123.733 176.867 123.591 177.402 123.341C177.938 123.091 178.419 122.738 178.818 122.302C179.217 121.867 179.527 121.356 179.729 120.801C179.931 120.246 180.021 119.656 179.995 119.065C179.97 118.475 179.828 117.896 179.578 117.36L162.922 81.6237L184.223 60.77L208.094 88.4528C208.748 89.2105 209.635 89.7287 210.617 89.9252C211.598 90.1218 212.617 89.9857 213.512 89.5383L231.512 80.5383C232.042 80.2748 232.515 79.9094 232.904 79.4629C233.292 79.0165 233.589 78.4977 233.777 77.9364C233.965 77.3751 234.04 76.7822 233.998 76.1917C233.957 75.6013 233.799 75.0248 233.534 74.4954C233.27 73.966 232.903 73.494 232.456 73.1064C232.008 72.7189 231.489 72.4234 230.927 72.2369C230.365 72.0503 229.772 71.9765 229.182 72.0195C228.592 72.0625 228.016 72.2216 227.487 72.4875L212.62 79.9231L188.665 52.1427L180.314 12.2986L184.157 11.1665C193.089 8.43774 202.606 8.26081 211.634 10.6557C220.661 13.0505 228.839 17.9218 235.244 24.7192C241.782 31.3894 246.325 39.7543 248.361 48.8698C250.397 57.9853 249.845 67.4885 246.766 76.3066L227.272 133.954C224.406 142.484 224.377 151.712 227.188 160.26V160.26Z" fill="#FAB005"/>
<rect x="138" y="154" width="134" height="134" rx="67" fill="#FAB005"/>
<rect x="166" y="182" width="78" height="78" rx="39" fill="#FAB005" stroke="white" stroke-width="2"/>
<path d="M208.384 199.091L207.887 235.682H202.12L201.622 199.091H208.384ZM205.003 250.398C203.777 250.398 202.724 249.959 201.846 249.08C200.968 248.202 200.529 247.15 200.529 245.923C200.529 244.697 200.968 243.645 201.846 242.766C202.724 241.888 203.777 241.449 205.003 241.449C206.229 241.449 207.282 241.888 208.16 242.766C209.038 243.645 209.478 244.697 209.478 245.923C209.478 246.735 209.27 247.481 208.856 248.161C208.458 248.84 207.92 249.387 207.24 249.801C206.577 250.199 205.832 250.398 205.003 250.398Z" fill="white"/>
</g>
<defs>
<clipPath id="clip0_8_2">
<rect width="288" height="288" fill="white"/>
</clipPath>
</defs>
</svg>
