<svg width="288" height="288" viewBox="0 0 288 288" fill="none" xmlns="http://www.w3.org/2000/svg">
<path d="M144 30.0096C33.9676 30.0096 30.0096 33.9676 30.0096 144C30.0096 254.032 33.9676 257.99 144 257.99C254.032 257.99 257.99 254.032 257.99 144C257.99 33.9676 254.032 30.0096 144 30.0096Z" fill="#FF6699"/>
<g clip-path="url(#clip0_10_12)">
<path d="M208.941 125.446C199.73 127.527 198.043 129.214 195.962 138.425C193.881 129.214 192.194 127.527 182.983 125.446C192.194 123.365 193.881 121.678 195.962 112.467C198.043 121.678 199.73 123.365 208.941 125.446Z" fill="#FDDE47"/>
<path d="M208.941 125.446C199.73 127.527 198.043 129.214 195.962 138.425C193.881 129.214 192.194 127.527 182.983 125.446C192.194 123.365 193.881 121.678 195.962 112.467C198.043 121.678 199.73 123.365 208.941 125.446ZM181.174 104.235C169.661 106.836 167.552 108.945 164.951 120.459C162.349 108.945 160.24 106.836 148.727 104.235C160.24 101.633 162.349 99.5247 164.951 88.011C167.552 99.5247 169.661 101.633 181.174 104.235Z" fill="#FDDE47"/>
<path d="M181.174 104.235C169.661 106.836 167.552 108.945 164.951 120.459C162.349 108.945 160.24 106.836 148.727 104.235C160.24 101.633 162.349 99.5247 164.951 88.011C167.552 99.5247 169.661 101.633 181.174 104.235Z" fill="#FDDE47"/>
<path d="M141.923 141.916H87.4947V183.784H141.923V141.916Z" fill="white"/>
<path d="M141.923 183.784H87.4947C82.8701 183.784 79.1211 187.533 79.1211 192.158V200.531C79.1211 205.156 82.8701 208.905 87.4947 208.905H141.923C146.548 208.905 150.297 205.156 150.297 200.531V192.158C150.297 187.533 146.548 183.784 141.923 183.784Z" fill="white"/>
<path d="M125.176 104.235H104.242V116.795H125.176V104.235Z" fill="white"/>
<path d="M125.176 79.114H104.242C101.93 79.114 100.055 80.9885 100.055 83.3008V100.048C100.055 102.36 101.93 104.235 104.242 104.235H125.176C127.488 104.235 129.363 102.36 129.363 100.048V83.3008C129.363 80.9885 127.488 79.114 125.176 79.114Z" fill="white"/>
<path d="M199.095 207.282L199.097 207.278L200.436 204.893C200.437 204.893 200.437 204.893 200.437 204.892C202.934 200.408 204.252 195.364 204.267 190.231C204.269 187.229 203.81 184.245 202.909 181.381C202.909 181.381 202.909 181.381 202.908 181.38L203.385 181.23C202.84 179.521 202.884 177.678 203.511 175.997L199.095 207.282ZM199.095 207.282C198.896 207.645 198.599 207.944 198.237 208.145C197.876 208.347 197.465 208.442 197.052 208.421C196.639 208.399 196.24 208.262 195.902 208.024C195.563 207.787 195.298 207.459 195.138 207.078L195.136 207.074L188.604 191.959L188.604 191.958C188.186 190.999 187.502 190.179 186.634 189.595C185.765 189.012 184.748 188.689 183.702 188.665C182.656 188.641 181.625 188.916 180.73 189.459C179.836 190.001 179.115 190.789 178.653 191.728L178.652 191.73L171.451 206.593C171.271 206.964 170.991 207.277 170.643 207.497C170.295 207.717 169.893 207.836 169.481 207.839C169.069 207.843 168.665 207.731 168.313 207.517C167.962 207.304 167.677 206.996 167.491 206.63C167.491 206.629 167.49 206.628 167.49 206.628L166.195 203.995L166.193 203.991C164.396 200.411 163.343 196.505 163.095 192.507C162.847 188.509 163.411 184.502 164.752 180.728L164.76 180.705L164.766 180.681L164.802 180.538C165.436 178.758 165.479 176.82 164.926 175.013L164.926 175.013L164.925 175.009L160.822 162.029L160.822 162.029C160.167 159.958 160.094 157.746 160.611 155.636C161.127 153.526 162.214 151.598 163.753 150.064C165.291 148.53 167.222 147.448 169.333 146.937C171.445 146.426 173.656 146.505 175.726 147.165L175.727 147.166L182.049 149.175L182.052 149.176C182.359 149.272 182.672 149.346 182.989 149.4C184.325 149.665 185.704 149.619 187.019 149.265L187.019 149.265L187.023 149.264L189.281 148.637L189.284 148.636L193.382 147.549L193.386 147.548C195.481 146.972 197.693 146.984 199.782 147.581C201.87 148.179 203.754 149.34 205.227 150.937C206.7 152.534 207.704 154.506 208.131 156.636C208.558 158.766 208.39 160.973 207.647 163.014L207.646 163.016L203.042 175.822C203.042 175.823 203.042 175.824 203.041 175.825L199.095 207.282Z" fill="#FF6699" stroke="white"/>
<path d="M180.89 125.447C180.89 125.922 181.051 126.383 181.348 126.754C181.644 127.125 182.058 127.384 182.522 127.489C190.952 129.394 192.018 130.46 193.921 138.886C194.026 139.35 194.285 139.763 194.656 140.06C195.027 140.356 195.488 140.518 195.963 140.518C196.438 140.518 196.899 140.356 197.27 140.06C197.641 139.763 197.901 139.35 198.005 138.886C199.909 130.458 200.974 129.392 209.403 127.489C209.866 127.384 210.28 127.125 210.576 126.754C210.873 126.383 211.034 125.922 211.034 125.447C211.034 124.972 210.873 124.511 210.576 124.14C210.28 123.769 209.866 123.509 209.403 123.405C200.976 121.501 199.911 120.436 198.005 112.005C197.901 111.542 197.641 111.128 197.27 110.832C196.899 110.535 196.438 110.374 195.963 110.374C195.488 110.374 195.027 110.535 194.656 110.832C194.285 111.128 194.026 111.542 193.921 112.005C192.016 120.434 190.95 121.499 182.522 123.405C182.058 123.509 181.644 123.769 181.348 124.14C181.051 124.511 180.89 124.972 180.89 125.447V125.447ZM195.963 119.606C196.505 120.916 197.299 122.106 198.301 123.108C199.303 124.11 200.492 124.905 201.802 125.447C200.493 125.989 199.303 126.783 198.301 127.785C197.3 128.787 196.505 129.976 195.963 131.285C195.421 129.976 194.626 128.786 193.624 127.785C192.622 126.783 191.432 125.988 190.123 125.447C191.432 124.905 192.622 124.111 193.625 123.108C194.627 122.106 195.422 120.916 195.963 119.606V119.606ZM148.265 106.277C158.983 108.698 160.488 110.202 162.908 120.921C163.013 121.384 163.272 121.798 163.644 122.094C164.015 122.391 164.476 122.552 164.951 122.552C165.426 122.552 165.886 122.391 166.258 122.094C166.629 121.798 166.888 121.384 166.993 120.921C169.413 110.202 170.918 108.698 181.636 106.277C182.1 106.172 182.514 105.913 182.81 105.542C183.106 105.171 183.268 104.71 183.268 104.235C183.268 103.76 183.106 103.299 182.81 102.928C182.514 102.557 182.1 102.297 181.636 102.193C170.918 99.772 169.413 98.2674 166.993 87.5489C166.888 87.0857 166.629 86.6719 166.258 86.3754C165.886 86.0789 165.426 85.9175 164.951 85.9175C164.476 85.9175 164.015 86.0789 163.644 86.3754C163.272 86.6719 163.013 87.0857 162.908 87.5489C160.488 98.2674 158.983 99.772 148.265 102.193C147.801 102.297 147.388 102.557 147.091 102.928C146.795 103.299 146.633 103.76 146.633 104.235C146.633 104.71 146.795 105.171 147.091 105.542C147.388 105.913 147.801 106.172 148.265 106.277V106.277ZM164.951 95.622C165.606 97.6345 166.728 99.4636 168.225 100.96C169.722 102.457 171.551 103.579 173.563 104.235C171.551 104.891 169.722 106.013 168.225 107.509C166.728 109.006 165.606 110.835 164.951 112.848C164.295 110.835 163.173 109.006 161.676 107.509C160.179 106.013 158.35 104.891 156.338 104.235C158.35 103.579 160.179 102.457 161.676 100.96C163.173 99.4636 164.295 97.6345 164.951 95.622V95.622ZM141.923 114.702H127.269V105.943C128.49 105.513 129.548 104.715 130.298 103.66C131.048 102.604 131.452 101.343 131.456 100.048V83.3008C131.454 81.6358 130.792 80.0394 129.615 78.8621C128.437 77.6847 126.841 77.0224 125.176 77.0206H104.242C102.577 77.0224 100.981 77.6847 99.8032 78.8621C98.6258 80.0394 97.9636 81.6358 97.9617 83.3008V100.048C97.9657 101.343 98.3703 102.604 99.1199 103.66C99.8696 104.715 100.928 105.513 102.149 105.943V114.702H87.4947C84.7197 114.705 82.0593 115.809 80.097 117.771C78.1348 119.733 77.031 122.394 77.0277 125.169V133.542C77.031 135.954 77.8656 138.291 79.3909 140.159C80.9162 142.027 83.039 143.312 85.4013 143.798V181.902C83.0389 182.387 80.916 183.673 79.3906 185.541C77.8652 187.409 77.0307 189.746 77.0277 192.158V200.531C77.0306 203.306 78.1344 205.967 80.0967 207.929C82.059 209.892 84.7196 210.995 87.4947 210.998H141.923C144.698 210.995 147.359 209.892 149.321 207.929C151.284 205.967 152.387 203.306 152.39 200.531V192.158C152.387 189.746 151.553 187.409 150.027 185.541C148.502 183.673 146.379 182.387 144.017 181.902V143.798C146.379 143.312 148.502 142.027 150.027 140.159C151.552 138.291 152.387 135.954 152.39 133.542V125.169C152.387 122.394 151.283 119.733 149.321 117.771C147.359 115.809 144.698 114.705 141.923 114.702ZM102.149 83.3008C102.149 82.7457 102.37 82.2135 102.762 81.821C103.155 81.4285 103.687 81.2078 104.242 81.2074H125.176C125.731 81.2078 126.263 81.4285 126.656 81.821C127.048 82.2135 127.269 82.7457 127.269 83.3008V100.048C127.269 100.603 127.048 101.135 126.656 101.528C126.263 101.92 125.731 102.141 125.176 102.141H104.242C103.687 102.141 103.155 101.92 102.762 101.528C102.37 101.135 102.149 100.603 102.149 100.048V83.3008ZM123.083 106.328V114.702H106.335V106.328H123.083ZM148.203 192.158V200.531C148.202 202.196 147.539 203.793 146.362 204.97C145.185 206.147 143.588 206.81 141.923 206.811H87.4947C85.8297 206.81 84.2333 206.147 83.056 204.97C81.8786 203.793 81.2164 202.196 81.2145 200.531V192.158C81.2164 190.493 81.8786 188.896 83.056 187.719C84.2333 186.541 85.8297 185.879 87.4947 185.877H141.923C143.588 185.879 145.185 186.541 146.362 187.719C147.539 188.896 148.202 190.493 148.203 192.158V192.158ZM89.5881 181.691V144.009H139.83V181.691H89.5881ZM148.203 133.542C148.202 135.207 147.539 136.804 146.362 137.981C145.185 139.159 143.588 139.821 141.923 139.823H87.4947C85.8297 139.821 84.2333 139.159 83.056 137.981C81.8786 136.804 81.2164 135.207 81.2145 133.542V125.169C81.2164 123.504 81.8786 121.907 83.056 120.73C84.2333 119.553 85.8297 118.89 87.4947 118.889H141.923C143.588 118.89 145.185 119.553 146.362 120.73C147.539 121.907 148.202 123.504 148.203 125.169V133.542ZM129.363 156.57H100.055C99.4999 156.57 98.9675 156.79 98.5749 157.183C98.1823 157.576 97.9617 158.108 97.9617 158.663C97.9617 159.218 98.1823 159.751 98.5749 160.143C98.9675 160.536 99.4999 160.757 100.055 160.757H129.363C129.918 160.757 130.45 160.536 130.843 160.143C131.236 159.751 131.456 159.218 131.456 158.663C131.456 158.108 131.236 157.576 130.843 157.183C130.45 156.79 129.918 156.57 129.363 156.57ZM125.176 164.943H104.242C103.687 164.943 103.154 165.164 102.762 165.557C102.369 165.949 102.149 166.482 102.149 167.037C102.149 167.592 102.369 168.125 102.762 168.517C103.154 168.91 103.687 169.13 104.242 169.13H125.176C125.731 169.13 126.264 168.91 126.656 168.517C127.049 168.125 127.269 167.592 127.269 167.037C127.269 166.482 127.049 165.949 126.656 165.557C126.264 165.164 125.731 164.943 125.176 164.943ZM192.711 145.036L186.318 146.769C185.177 147.083 183.969 147.057 182.843 146.696L176.532 144.69C174.008 143.888 171.312 143.794 168.739 144.419C166.165 145.044 163.813 146.363 161.937 148.233C160.062 150.103 158.736 152.452 158.104 155.024C157.472 157.595 157.558 160.291 158.353 162.817L162.432 175.778C162.843 177.113 162.797 178.546 162.301 179.851C160.851 183.955 160.242 188.309 160.51 192.653C160.778 196.998 161.916 201.244 163.859 205.139L165.179 207.776C165.575 208.575 166.187 209.246 166.945 209.715C167.703 210.183 168.577 210.429 169.468 210.426H169.501C170.398 210.423 171.277 210.168 172.035 209.69C172.794 209.211 173.402 208.528 173.79 207.719L180.98 192.873C181.177 192.344 181.545 191.896 182.027 191.602C182.509 191.307 183.075 191.183 183.636 191.25C184.189 191.253 184.729 191.419 185.188 191.727C185.647 192.036 186.006 192.472 186.218 192.983L192.77 208.124V208.128C193.124 208.951 193.702 209.659 194.44 210.168C195.177 210.678 196.043 210.97 196.938 211.01C197.02 211.015 197.1 211.015 197.179 211.015C198.035 211.017 198.875 210.79 199.612 210.356C200.349 209.922 200.956 209.298 201.368 208.549L202.709 206.137C204.843 202.275 206.179 198.025 206.638 193.637C207.097 189.249 206.67 184.814 205.381 180.595C204.991 179.317 205.024 177.948 205.475 176.69L210.102 163.917C211.003 161.427 211.204 158.738 210.682 156.142C210.159 153.545 208.934 151.143 207.14 149.195C205.346 147.247 203.052 145.829 200.508 145.096C197.963 144.362 195.266 144.342 192.711 145.036L192.711 145.036ZM206.164 162.494L201.538 175.267C200.779 177.38 200.723 179.682 201.378 181.829C202.502 185.508 202.876 189.376 202.476 193.201C202.076 197.027 200.911 200.734 199.05 204.1L197.709 206.513C197.649 206.609 197.566 206.688 197.468 206.743C197.369 206.798 197.258 206.827 197.145 206.828C197.03 206.827 196.918 206.791 196.823 206.727C196.729 206.662 196.655 206.57 196.613 206.464L190.061 191.323C189.531 190.075 188.65 189.008 187.525 188.252C186.4 187.496 185.079 187.083 183.723 187.063C182.365 187.006 181.02 187.355 179.86 188.065C178.7 188.775 177.778 189.814 177.21 191.049L170.022 205.895C169.975 206.001 169.898 206.089 169.801 206.15C169.703 206.212 169.589 206.242 169.474 206.239C169.359 206.246 169.245 206.217 169.147 206.157C169.048 206.098 168.971 206.009 168.924 205.903L167.602 203.266C165.905 199.851 164.915 196.128 164.69 192.321C164.466 188.514 165.012 184.701 166.295 181.11C167.059 178.986 167.105 176.671 166.426 174.519L162.348 161.558C161.783 159.763 161.722 157.847 162.171 156.02C162.62 154.193 163.562 152.524 164.895 151.195C166.227 149.867 167.899 148.93 169.727 148.486C171.556 148.042 173.471 148.109 175.264 148.678L181.571 150.686L181.637 150.697C180.822 151.811 180.225 153.068 179.876 154.403C179.745 154.942 179.833 155.512 180.122 155.987C180.411 156.461 180.876 156.802 181.416 156.933C181.579 156.97 181.745 156.99 181.912 156.991C182.381 156.99 182.836 156.832 183.204 156.542C183.573 156.252 183.833 155.847 183.944 155.392C184.203 154.35 184.699 153.382 185.392 152.562C186.086 151.742 186.958 151.093 187.943 150.665L193.808 149.075C195.624 148.583 197.54 148.599 199.348 149.12C201.156 149.642 202.786 150.649 204.06 152.034C205.335 153.418 206.205 155.125 206.576 156.969C206.947 158.814 206.805 160.725 206.164 162.494V162.494Z" fill="white"/>
</g>
<defs>
<clipPath id="clip0_10_12">
<rect width="133.978" height="133.978" fill="white" transform="translate(77.0277 77.0206)"/>
</clipPath>
</defs>
</svg>
