<svg width="288" height="288" viewBox="0 0 288 288" fill="none" xmlns="http://www.w3.org/2000/svg">
<g clip-path="url(#clip0_12_27)">
<path d="M97.8217 66.7276C96.9426 66.7276 96.0832 66.9882 95.3522 67.4766C94.6212 67.965 94.0515 68.6592 93.715 69.4714C93.3786 70.2836 93.2905 71.1773 93.462 72.0395C93.6335 72.9018 94.0568 73.6938 94.6785 74.3154C95.3001 74.9371 96.0921 75.3604 96.9544 75.5319C97.8166 75.7034 98.7103 75.6153 99.5225 75.2789C100.335 74.9424 101.029 74.3727 101.517 73.6417C102.006 72.9107 102.266 72.0513 102.266 71.1722C102.266 69.9934 101.798 68.8629 100.964 68.0294C100.131 67.1959 99.0005 66.7276 97.8217 66.7276V66.7276ZM80.0426 75.6172C79.1634 75.6171 78.304 75.8778 77.5731 76.3662C76.8421 76.8545 76.2723 77.5487 75.9359 78.3609C75.5994 79.1731 75.5114 80.0669 75.6829 80.9291C75.8544 81.7913 76.2777 82.5834 76.8993 83.205C77.521 83.8266 78.313 84.25 79.1752 84.4215C80.0375 84.593 80.9312 84.5049 81.7434 84.1685C82.5556 83.832 83.2498 83.2623 83.7382 82.5313C84.2265 81.8003 84.4872 80.9409 84.4871 80.0618C84.487 78.883 84.0187 77.7526 83.1852 76.9192C82.3517 76.0857 81.2213 75.6174 80.0426 75.6173V75.6172ZM277.548 227.202L217.842 167.5L217.834 167.489L217.823 167.482L205.258 154.916C202.709 152.479 199.318 151.119 195.792 151.119C192.265 151.119 188.875 152.479 186.326 154.916L183.223 158.019L163.172 137.971C172.023 124.562 177.077 109.006 177.798 92.9556C178.519 76.905 174.88 60.9587 167.267 46.81C159.654 32.6614 148.351 20.8384 134.559 12.5967C120.768 4.35489 105.001 0.00193135 88.9343 5.69861e-08C71.3412 -0.000629541 54.143 5.21573 39.5146 14.9894C24.8862 24.7631 13.4845 38.6552 6.75139 54.9089C0.0182985 71.1626 -1.74379 89.0478 1.68794 106.303C5.11968 123.558 13.5911 139.408 26.031 151.849C40.5253 166.34 59.5782 175.383 79.9698 177.45C100.361 179.517 120.841 174.481 137.949 163.193L158.001 183.242L154.896 186.346C152.389 188.859 150.981 192.264 150.981 195.814C150.981 199.364 152.389 202.769 154.896 205.282L167.463 217.848L167.465 217.85L167.467 217.852L227.186 277.567C230.494 280.874 234.42 283.497 238.74 285.287C243.061 287.076 247.692 287.997 252.369 287.997C257.045 287.997 261.676 287.075 265.997 285.285C270.317 283.496 274.243 280.872 277.55 277.565C280.857 274.258 283.48 270.332 285.269 266.011C287.059 261.69 287.98 257.06 287.979 252.383C287.979 247.706 287.058 243.075 285.268 238.755C283.478 234.434 280.855 230.508 277.548 227.202H277.548ZM88.9346 168.904C73.1214 168.905 57.6631 164.216 44.5145 155.431C31.3659 146.647 21.1177 134.16 15.0657 119.551C9.01366 104.942 7.42976 88.8659 10.5143 73.3565C13.5988 57.847 21.2132 43.6006 32.3945 32.4187C39.8108 24.9593 48.6262 19.0367 58.3355 14.9902C68.0448 10.9437 78.4572 8.85284 88.9759 8.83751C99.4947 8.82217 109.913 10.8826 119.634 14.9008C129.355 18.919 138.188 24.8159 145.626 32.2536C153.064 39.6914 158.961 48.5237 162.98 58.2446C166.998 67.9655 169.059 78.3838 169.044 88.9026C169.029 99.4213 166.939 109.834 162.893 119.543C158.847 129.253 152.925 138.068 145.466 145.485C138.059 152.933 129.249 158.837 119.546 162.857C109.842 166.877 99.4376 168.932 88.9343 168.904L88.9346 168.904ZM145.58 158.098L158.078 145.604L176.86 164.382L164.362 176.875L145.58 158.098ZM161.26 198.918C160.437 198.095 159.974 196.978 159.974 195.814C159.974 194.649 160.437 193.532 161.26 192.709L192.69 161.279C193.513 160.457 194.629 159.996 195.792 159.996C196.955 159.996 198.071 160.457 198.895 161.279L208.288 170.672L170.647 208.305L161.26 198.918ZM271.185 271.204C266.115 276.044 259.376 278.745 252.367 278.745C245.358 278.745 238.619 276.044 233.55 271.204L177.01 214.668L214.651 177.035L271.185 233.565C273.656 236.036 275.617 238.97 276.954 242.199C278.292 245.428 278.98 248.889 278.98 252.384C278.98 255.88 278.292 259.341 276.954 262.57C275.617 265.799 273.656 268.733 271.185 271.204H271.185ZM245.96 245.988C244.073 247.877 242.789 250.283 242.269 252.901C241.75 255.52 242.018 258.234 243.041 260.7C244.064 263.166 245.794 265.273 248.015 266.756C250.235 268.238 252.845 269.029 255.514 269.028C258.184 269.028 260.794 268.236 263.013 266.752C265.233 265.269 266.962 263.16 267.984 260.694C269.005 258.227 269.273 255.513 268.752 252.895C268.231 250.277 266.946 247.872 265.058 245.984C262.523 243.456 259.088 242.037 255.508 242.037C251.928 242.038 248.494 243.459 245.96 245.988V245.988ZM258.695 258.71C258.065 259.34 257.264 259.768 256.391 259.942C255.518 260.116 254.613 260.027 253.791 259.686C252.968 259.346 252.265 258.769 251.771 258.029C251.276 257.289 251.012 256.419 251.012 255.529C251.012 254.639 251.276 253.768 251.771 253.028C252.265 252.288 252.968 251.712 253.791 251.371C254.613 251.03 255.518 250.941 256.391 251.115C257.264 251.289 258.065 251.718 258.695 252.347C259.534 253.193 260.006 254.337 260.006 255.529C260.006 256.721 259.535 257.864 258.695 258.71L258.695 258.71ZM98.6989 47.232L90.6657 49.5128C89.5371 49.835 88.341 49.8365 87.2116 49.5172L79.1697 47.232C75.5617 46.1836 71.7345 46.1507 68.1091 47.1369C64.4837 48.1231 61.2005 50.0902 58.6209 52.8218C56.1666 55.3655 54.4733 58.5452 53.7324 62.0013C52.9915 65.4574 53.2326 69.0518 54.4285 72.378L59.9305 88.0841C60.3389 89.2703 60.3203 90.562 59.8777 91.7359C58.0619 97.0443 57.3718 102.673 57.8515 108.263C58.3312 113.853 59.9701 119.281 62.6638 124.203L64.4129 127.376C65.0846 128.684 66.1231 129.769 67.4015 130.497C68.6798 131.226 70.1427 131.566 71.6111 131.476C73.0723 131.445 74.4961 131.009 75.7238 130.216C76.9514 129.423 77.9344 128.304 78.5632 126.985L87.264 108.677C88.1077 106.91 89.7601 106.915 90.6038 108.672L99.305 126.984V126.993C99.9358 128.311 100.92 129.427 102.147 130.218C103.374 131.009 104.797 131.445 106.257 131.475L106.486 131.48C107.91 131.489 109.31 131.112 110.537 130.39C111.764 129.667 112.773 128.625 113.455 127.375L115.081 124.4C117.814 119.421 119.478 113.925 119.965 108.266C120.452 102.606 119.753 96.9072 117.911 91.5335C117.535 90.4164 117.541 89.2057 117.929 88.0926L123.44 72.3778C124.635 69.0497 124.874 65.4533 124.13 61.9962C123.386 58.5391 121.689 55.3595 119.23 52.8178C116.652 50.09 113.371 48.1256 109.749 47.1402C106.127 46.1548 102.304 46.1866 98.6989 47.232V47.232ZM114.95 69.398L109.439 85.1085C108.377 88.1317 108.365 91.4245 109.404 94.4556C110.836 98.6462 111.379 103.089 110.997 107.501C110.616 111.913 109.319 116.197 107.189 120.08L106.548 121.258L98.7253 104.809C97.8285 102.976 96.4352 101.432 94.704 100.352C92.9728 99.2723 90.9732 98.7 88.9328 98.7005C86.8924 98.701 84.8931 99.2743 83.1624 100.355C81.4317 101.436 80.0392 102.981 79.1433 104.814L71.321 121.267L70.556 119.874C68.4562 116.023 67.184 111.776 66.8208 107.405C66.4576 103.034 67.0115 98.6355 68.447 94.491C69.5046 91.4534 69.4983 88.1465 68.429 85.113L62.919 69.3985C62.2861 67.626 62.1622 65.7117 62.5614 63.8725C62.9607 62.0333 63.8671 60.3427 65.178 58.9922C66.2427 57.8641 67.5277 56.9665 68.9533 56.355C70.3789 55.7435 71.9149 55.4312 73.4661 55.4372C74.5628 55.4366 75.6542 55.589 76.7087 55.89L84.7595 58.1752C87.4919 58.9486 90.3854 58.9486 93.1179 58.1752L101.16 55.89C103.18 55.3015 105.323 55.2793 107.355 55.8256C109.387 56.372 111.23 57.4659 112.682 58.9882C113.993 60.3399 114.899 62.0308 115.3 63.8702C115.7 65.7095 115.579 67.6243 114.95 69.3985L114.95 69.398ZM136.114 41.7696C126.784 32.4487 114.9 26.103 101.965 23.5348C89.0292 20.9665 75.6226 22.291 63.4397 27.3407C51.2567 32.3904 40.8443 40.9388 33.5187 51.9051C26.1931 62.8714 22.2832 75.7634 22.2832 88.9515C22.2832 102.14 26.1931 115.032 33.5187 125.998C40.8443 136.964 51.2567 145.513 63.4397 150.562C75.6226 155.612 89.0292 156.936 101.965 154.368C114.9 151.8 126.784 145.454 136.114 136.133C148.607 123.609 155.623 106.642 155.623 88.9517C155.623 71.2618 148.607 54.294 136.114 41.77L136.114 41.7696ZM129.751 129.77C121.679 137.834 111.399 143.323 100.208 145.545C89.017 147.767 77.4188 146.621 66.8791 142.252C56.3395 137.883 47.3316 130.488 40.9942 121.001C34.6567 111.514 31.2742 100.361 31.2742 88.9515C31.2742 77.5423 34.6567 66.3892 40.9942 56.9021C47.3316 47.4149 56.3395 40.0196 66.8791 35.6509C77.4188 31.2822 89.017 30.1363 100.208 32.358C111.399 34.5797 121.679 40.0693 129.751 48.1329C140.562 58.9665 146.634 73.6466 146.634 88.9518C146.634 104.257 140.562 118.937 129.751 129.771L129.751 129.77Z" fill="#6281FB"/>
</g>
<defs>
<clipPath id="clip0_12_27">
<rect width="288" height="288" fill="white"/>
</clipPath>
</defs>
</svg>
